<svg xmlns="http://www.w3.org/2000/svg" xmlns:xlink="http://www.w3.org/1999/xlink" width="498px" height="106px" viewBox="0 0 498 106">
<path fill-rule="evenodd"  fill="#fd3843" d="M490.591,56.688 C488.008,54.363 485.554,52.425 481.808,52.425 C478.579,52.425 476.900,54.363 476.900,57.204 C477.158,64.825 497.696,63.275 497.696,82.779 C497.696,95.696 490.204,105.641 476.771,105.641 C469.796,105.641 462.563,102.671 457.138,98.150 L465.146,85.233 C467.858,87.558 470.571,89.496 474.187,89.496 C477.029,89.496 479.483,87.429 479.483,84.071 C479.742,75.417 458.688,77.612 458.688,56.946 C458.688,44.546 469.021,37.829 480.517,37.829 C487.104,37.829 492.658,39.509 497.954,43.384 L490.591,56.688 ZM430.014,0.113 L448.226,0.113 L448.226,104.350 L430.014,104.350 L430.014,0.113 ZM402.243,96.987 L401.985,96.987 C399.530,101.896 395.785,105.641 389.972,105.641 C375.247,105.641 372.276,82.133 372.276,71.671 C372.276,60.433 374.472,37.829 389.714,37.829 C395.785,37.829 399.918,41.834 401.985,47.129 L402.243,47.129 L402.243,39.121 L420.455,39.121 L420.455,104.350 L402.243,104.350 L402.243,96.987 ZM396.947,53.975 C390.876,53.975 390.489,67.667 390.489,71.412 C390.489,75.546 390.747,88.979 397.205,88.979 C403.018,88.979 403.535,74.900 403.535,71.412 C403.535,67.796 403.147,53.975 396.947,53.975 ZM364.915,76.579 L336.111,76.579 C336.241,81.358 335.982,91.691 342.957,91.691 C347.607,91.691 348.770,88.075 348.770,84.200 L364.270,84.200 C362.720,96.212 356.907,105.641 343.603,105.641 C325.132,105.641 318.545,89.237 318.545,73.092 C318.545,57.463 324.228,37.829 343.216,37.829 C355.228,37.829 366.336,48.550 365.303,69.087 L364.915,76.579 ZM349.545,63.792 C349.545,59.529 348.641,51.779 342.957,51.779 C337.403,51.779 336.241,59.271 336.241,63.404 L336.241,65.342 L349.545,65.342 L349.545,63.792 ZM271.399,104.350 L254.220,104.350 L254.220,6.959 L268.816,6.959 C272.174,6.959 312.474,2.051 312.474,56.429 C312.474,84.200 301.753,104.350 271.399,104.350 ZM273.466,24.267 L273.466,87.042 C288.966,87.816 293.228,68.442 293.228,56.300 C293.228,43.900 289.353,24.267 273.466,24.267 Z"/>
<path fill-rule="evenodd"  fill="#09b0d9" d="M197.647,105.641 C176.980,105.641 175.301,90.141 175.301,78.258 L175.301,39.121 L193.514,39.121 L193.514,74.900 C193.514,78.517 192.093,88.591 198.164,88.591 C203.072,88.591 202.684,82.133 202.684,78.904 L202.814,39.121 L220.897,39.121 L220.897,80.712 C220.897,95.825 213.793,105.641 197.647,105.641 ZM149.857,104.350 L136.940,74.125 L136.682,74.125 L136.682,104.350 L118.470,104.350 L118.470,0.113 L136.682,0.113 L136.682,61.983 L136.940,61.983 L146.886,39.121 L166.648,39.121 L151.924,65.729 L169.878,104.350 L149.857,104.350 ZM110.850,76.579 L82.046,76.579 C82.175,81.358 81.917,91.691 88.892,91.691 C93.542,91.691 94.704,88.075 94.704,84.200 L110.204,84.200 C108.654,96.212 102.842,105.641 89.538,105.641 C71.067,105.641 64.480,89.237 64.480,73.092 C64.480,57.463 70.163,37.829 89.150,37.829 C101.163,37.829 112.271,48.550 111.238,69.087 L110.850,76.579 ZM95.479,63.792 C95.479,59.529 94.575,51.779 88.892,51.779 C83.338,51.779 82.175,59.271 82.175,63.404 L82.175,65.342 L95.479,65.342 L95.479,63.792 ZM17.334,104.350 L0.155,104.350 L0.155,6.959 L14.751,6.959 C18.109,6.959 58.409,2.051 58.409,56.429 C58.409,84.200 47.688,104.350 17.334,104.350 ZM19.401,24.267 L19.401,87.042 C34.900,87.816 39.163,68.442 39.163,56.300 C39.163,43.900 35.288,24.267 19.401,24.267 Z"/>
</svg>
